<mxfile host="app.diagrams.net" modified="2023-08-17T20:08:23.555Z" agent="Mozilla/5.0 (Windows NT 10.0; Win64; x64) AppleWebKit/537.36 (KHTML, like Gecko) Chrome/116.0.0.0 Safari/537.36" version="21.6.5" etag="Lbiy2W5MIcykvbji8Xdk" type="github">
  <diagram name="PÃ¡gina-1" id="7i878U4_3oj4tbmzvSAN">
    <mxGraphModel>
      <root>
        <mxCell id="0" />
        <mxCell id="1" parent="0" />
      </root>
    </mxGraphModel>
  </diagram>
</mxfile>
